<?xml version="1.0" standalone="no"?>
<!DOCTYPE svg PUBLIC "-//W3C//DTD SVG 20010904//EN"
 "http://www.w3.org/TR/2001/REC-SVG-20010904/DTD/svg10.dtd">
<svg version="1.0" xmlns="http://www.w3.org/2000/svg"
 width="1080.000000pt" height="1080.000000pt" viewBox="0 0 1080.000000 1080.000000"
 preserveAspectRatio="xMidYMid meet">
<metadata>
Created by potrace 1.11, written by Peter Selinger 2001-2013
</metadata>
<g transform="translate(0.000000,1080.000000) scale(0.100000,-0.100000)"
fill="#000000" stroke="none">
<path d="M5329 8988 c-1 -51 -3 -102 -5 -113 -1 -11 -5 -38 -8 -60 -8 -76 -54
-257 -71 -285 -25 -40 -24 -144 1 -171 65 -71 157 -64 220 18 56 73 143 223
129 223 -3 0 -1 9 5 20 19 36 15 151 -6 193 -20 38 -238 267 -255 267 -5 0
-10 -42 -10 -92z"/>
<path d="M6405 8303 c-24 -63 -113 -235 -155 -298 -40 -59 -120 -157 -138
-168 -37 -24 -57 -110 -33 -147 34 -55 76 -79 126 -75 17 2 35 3 41 4 42 4
252 179 281 234 38 74 49 176 24 212 -4 6 -16 33 -26 60 -10 28 -29 75 -42
105 -14 30 -31 70 -39 88 -8 17 -16 32 -18 32 -2 0 -11 -21 -21 -47z"/>
<path d="M4359 8302 c-10 -20 -29 -68 -44 -107 -15 -38 -36 -88 -47 -109 -39
-76 -30 -169 23 -251 32 -48 120 -132 175 -165 21 -13 41 -26 44 -29 3 -4 18
-13 34 -21 83 -43 196 22 196 113 0 30 -26 74 -77 133 -56 65 -113 142 -113
153 0 5 -4 11 -9 13 -12 5 -95 162 -126 241 -15 37 -30 67 -34 67 -3 0 -13
-17 -22 -38z"/>
<path d="M5373 8086 c-13 -6 -23 -14 -23 -18 0 -5 -7 -8 -15 -8 -8 0 -15 -4
-15 -9 0 -5 -9 -11 -19 -14 -14 -3 -21 -18 -26 -58 -4 -30 -9 -63 -11 -74 -5
-25 -24 -148 -30 -195 -12 -95 -5 -89 -107 -92 l-91 -3 -8 -36 c-4 -20 -9 -47
-12 -60 -27 -144 -102 -350 -168 -467 -17 -29 -28 -55 -26 -57 4 -4 124 37
173 60 17 7 54 23 83 34 l52 21 -5 -23 c-3 -12 -7 -33 -9 -47 -2 -14 -9 -45
-15 -70 -23 -104 -50 -234 -56 -275 -3 -17 -13 -60 -29 -125 -6 -20 -44 -180
-63 -260 -21 -91 -26 -111 -57 -220 -9 -30 -19 -68 -22 -85 -5 -28 -51 -195
-61 -221 -8 -21 146 -36 355 -36 140 0 154 4 157 44 2 13 5 41 8 63 3 22 9 63
12 90 3 28 7 64 10 80 3 17 7 50 10 75 2 25 7 65 9 90 29 246 40 456 41 775
l0 260 58 38 c32 20 61 37 65 37 4 0 38 21 76 45 38 25 74 45 79 45 6 0 20 8
31 19 12 10 48 33 81 50 33 18 63 36 67 39 4 4 8 59 9 122 1 133 7 128 -105
86 -64 -25 -119 -38 -158 -40 -10 0 -18 -3 -18 -6 0 -3 -8 -6 -17 -7 -10 -1
-49 -4 -88 -8 l-70 -7 -3 74 c-1 40 -4 111 -6 158 -2 47 -4 118 -5 158 -1 75
-2 77 -38 58z"/>
<path d="M6042 7101 c-46 -30 -74 -78 -69 -123 6 -54 28 -80 88 -107 210 -92
398 -213 488 -313 8 -10 19 -18 22 -18 4 0 5 39 3 88 -3 48 -6 116 -8 152 -5
112 -18 149 -71 209 -54 61 -207 116 -354 127 -55 4 -72 1 -99 -15z"/>
<path d="M5521 6923 c-1 -54 -4 -141 -6 -193 -4 -120 -17 -313 -29 -415 -2
-16 -6 -64 -11 -105 -4 -41 -9 -82 -10 -91 -2 -9 -6 -40 -10 -70 -9 -65 -12
-84 -25 -169 -21 -130 -21 -127 4 -132 54 -11 304 5 444 27 22 3 21 8 -43 205
-76 230 -134 417 -139 443 -2 12 -22 85 -44 162 -22 77 -42 151 -45 165 -7 31
-16 67 -43 165 -16 59 -22 83 -23 98 -1 4 -4 7 -9 7 -4 0 -9 -44 -11 -97z"/>
<path d="M4550 6882 c-71 -8 -181 -37 -224 -59 -61 -31 -120 -89 -140 -137
-19 -45 -42 -376 -27 -376 4 0 26 21 50 45 25 25 48 45 52 45 3 0 19 11 35 25
41 36 40 35 139 96 50 30 129 73 177 94 116 52 138 70 145 121 8 61 -19 112
-73 136 -40 17 -63 19 -134 10z"/>
<path d="M3780 5964 c0 -5 23 -22 52 -39 28 -16 56 -34 62 -40 41 -35 370
-197 486 -239 58 -20 112 -40 120 -43 45 -18 300 -81 370 -92 36 -6 76 -13 90
-16 89 -18 426 -24 600 -12 118 9 141 11 220 26 30 5 71 12 90 16 19 3 73 15
120 26 47 11 98 23 115 26 97 17 498 160 653 234 46 21 89 39 96 39 6 0 16 4
22 9 5 5 51 30 102 56 52 26 91 49 89 52 -3 2 -90 -20 -194 -51 -103 -31 -199
-57 -213 -60 -14 -2 -70 -15 -125 -29 -55 -14 -127 -31 -160 -37 -33 -6 -69
-13 -80 -15 -11 -2 -42 -6 -68 -9 -27 -3 -52 -8 -55 -10 -7 -3 -73 -13 -152
-21 -19 -3 -53 -7 -75 -11 -22 -4 -53 -8 -70 -9 -190 -16 -275 -19 -485 -19
-276 -1 -417 8 -630 39 -14 2 -47 7 -75 10 -27 3 -57 8 -65 11 -8 3 -35 8 -60
10 -52 6 -63 8 -315 70 -104 25 -237 62 -295 81 -58 19 -112 36 -120 38 -8 2
-23 6 -32 10 -10 4 -18 3 -18 -1z"/>
<path d="M4302 5455 c-23 -44 -45 -86 -50 -93 -7 -10 -25 -10 -97 3 -48 8 -92
15 -96 15 -19 0 -6 -19 59 -84 l68 -69 -45 -88 c-25 -48 -43 -91 -40 -94 3 -3
45 16 93 41 l88 46 68 -68 c70 -70 94 -87 86 -62 -3 7 -7 33 -10 58 -3 25 -8
65 -12 90 l-6 45 91 45 c89 43 108 59 74 61 -10 0 -27 2 -38 4 -11 3 -42 7
-68 9 -67 7 -87 15 -88 34 -2 41 -19 140 -28 165 -7 19 -14 11 -49 -58z"/>
<path d="M6386 5522 c-7 -12 -19 -84 -20 -119 -1 -13 -4 -23 -8 -23 -3 0 -4
-8 -2 -17 7 -29 -12 -46 -53 -49 -66 -4 -153 -23 -153 -32 0 -4 41 -27 91 -50
l90 -44 -6 -39 c-8 -45 -12 -77 -20 -133 l-5 -39 37 34 c20 19 52 51 72 72 19
20 39 37 45 37 5 0 49 -20 98 -45 48 -25 88 -43 88 -39 0 4 -20 48 -45 97
l-46 90 75 74 c41 40 71 75 68 77 -4 2 -51 -4 -105 -13 l-97 -17 -33 60 c-19
34 -41 76 -49 95 -9 18 -18 28 -22 23z"/>
<path d="M5322 5332 l-32 -98 -100 1 c-63 0 -100 -3 -100 -10 1 -9 128 -106
150 -113 5 -2 -7 -48 -26 -103 -20 -55 -34 -102 -31 -105 2 -2 31 15 63 39
106 78 112 81 128 65 40 -35 146 -111 150 -107 2 2 -8 40 -21 84 -39 126 -43
113 47 175 44 30 80 58 80 62 0 4 -46 9 -101 10 l-102 3 -29 90 c-16 50 -33
94 -37 98 -4 4 -22 -37 -39 -91z"/>
<path d="M7010 5002 c-39 -16 -136 -45 -188 -57 -9 -3 -66 -18 -127 -35 -122
-34 -130 -36 -230 -55 -38 -8 -81 -17 -95 -20 -14 -3 -47 -10 -75 -15 -27 -5
-61 -11 -75 -14 -87 -16 -218 -34 -295 -40 -27 -2 -117 -10 -200 -17 -221 -18
-533 -16 -730 6 -22 2 -76 7 -120 10 -44 3 -109 11 -145 16 -36 6 -76 12 -90
14 -114 16 -428 86 -540 120 -41 13 -109 33 -150 46 -41 12 -77 23 -80 24 -3
1 -18 7 -33 13 -16 7 -36 12 -45 12 -24 -1 12 -27 133 -99 118 -69 249 -136
360 -184 86 -37 300 -110 322 -110 7 0 13 -4 13 -9 0 -4 3 -7 8 -6 6 1 64 -10
152 -29 14 -3 32 -7 40 -8 8 -1 29 -5 45 -8 199 -43 630 -54 789 -21 16 3 40
7 55 9 52 5 127 17 161 25 19 5 53 11 75 14 22 2 76 14 120 26 44 13 84 23 90
25 5 1 17 4 25 7 8 3 42 13 75 22 90 26 278 93 385 139 151 64 354 159 361
169 3 6 10 10 15 10 17 1 54 21 54 30 0 11 -8 10 -60 -10z"/>
<path d="M4423 4601 c-8 -24 -93 -231 -112 -271 -9 -19 -16 -37 -16 -40 -2
-25 -227 -456 -306 -586 -27 -45 -49 -84 -49 -86 0 -7 705 -3 716 4 35 23 257
528 337 768 38 114 38 111 -8 116 -175 16 -217 21 -265 34 -19 5 -48 12 -65
15 -16 3 -74 18 -128 34 -88 25 -99 27 -104 12z"/>
<path d="M6330 4603 c-79 -24 -207 -56 -260 -66 -69 -13 -96 -17 -155 -22 -69
-6 -128 -14 -131 -18 -2 -1 12 -40 31 -85 18 -45 31 -82 28 -82 -3 0 -1 -6 5
-13 6 -6 19 -35 30 -62 34 -85 199 -432 212 -445 3 -3 18 -32 35 -65 16 -33
39 -76 51 -95 l22 -36 353 1 c305 1 354 3 351 15 -3 13 -45 82 -157 260 -69
109 -239 437 -327 631 l-44 96 -44 -14z"/>
<path d="M4073 3478 c-78 -25 -123 -119 -89 -186 15 -29 64 -71 89 -76 33 -6
86 -36 101 -57 23 -33 20 -66 -8 -94 -20 -20 -32 -23 -77 -21 -30 1 -64 8 -77
15 -28 15 -38 9 -45 -25 -4 -22 0 -28 32 -41 131 -56 276 17 267 134 -5 62
-30 92 -116 136 -41 21 -80 46 -87 55 -21 28 -15 59 16 81 29 21 64 22 134 5
20 -5 27 -3 27 9 0 8 3 22 6 31 13 34 -101 57 -173 34z"/>
<path d="M4805 3482 c-1 -2 -18 -5 -37 -7 -18 -2 -35 -4 -38 -4 -3 -1 -5 -110
-5 -243 l0 -243 38 -3 37 -3 0 105 0 106 44 0 c65 0 99 -40 111 -130 1 -8 5
-23 9 -32 3 -10 8 -25 11 -33 3 -10 18 -15 45 -15 22 0 40 2 40 5 0 3 -7 22
-15 41 -8 19 -14 38 -13 42 4 19 -29 107 -48 127 l-21 23 28 21 c34 25 54 86
45 134 -8 43 -62 94 -108 101 -47 8 -118 12 -123 8z m123 -83 c12 -8 26 -27
30 -44 16 -59 -27 -100 -111 -104 l-47 -3 1 86 1 85 52 -3 c28 -2 62 -9 74
-17z"/>
<path d="M6268 3467 c-60 -30 -83 -71 -79 -144 2 -37 56 -88 125 -117 37 -16
72 -39 81 -53 22 -33 12 -75 -23 -95 -31 -19 -115 -18 -150 1 -28 15 -30 14
-38 -27 -6 -30 -5 -31 51 -48 72 -20 135 -13 188 22 55 36 77 109 51 170 -16
38 -23 44 -110 88 -73 36 -96 56 -100 84 -8 49 67 84 135 64 50 -16 47 -17 60
19 13 38 13 40 4 37 -5 -1 -27 4 -50 10 -53 16 -98 12 -145 -11z"/>
<path d="M6642 3470 c-59 -36 -78 -109 -46 -176 16 -34 16 -34 -14 -62 -46
-42 -60 -72 -56 -124 5 -86 62 -133 159 -132 42 1 71 7 99 23 l39 22 22 -21
c17 -16 33 -21 66 -18 l44 3 -41 44 -42 45 28 50 c15 28 27 58 28 66 1 8 4 28
8 43 6 28 6 28 -32 25 -26 -2 -39 -8 -39 -18 -1 -25 -25 -99 -34 -105 -5 -3
-32 20 -59 52 l-50 57 38 27 c45 32 57 52 60 94 4 37 -11 74 -39 99 -30 27
-99 30 -139 6z m84 -48 c39 -26 34 -75 -12 -111 -34 -26 -50 -15 -59 41 -5 29
-2 41 14 57 22 22 38 26 57 13z m-8 -281 c34 -38 62 -72 62 -74 0 -9 -58 -28
-88 -29 -81 -2 -120 91 -64 155 8 9 18 17 22 17 3 0 34 -31 68 -69z"/>
<path d="M4321 3422 c17 -32 53 -97 80 -147 l48 -90 -3 -90 c-1 -49 0 -96 2
-102 2 -7 19 -13 38 -13 20 0 34 5 35 13 1 6 1 52 1 102 l0 89 53 91 c30 49
65 108 79 131 43 69 43 72 -4 70 -46 -2 -51 -9 -120 -145 l-38 -74 -18 34
c-10 19 -34 66 -53 104 -19 39 -36 72 -37 74 -2 2 -24 5 -49 6 l-45 3 31 -56z"/>
<path d="M5122 3471 c-5 -3 -8 -115 -8 -248 l0 -243 38 0 38 0 0 248 0 248
-30 0 c-16 0 -33 -2 -38 -5z"/>
<path d="M5423 3471 c-9 -6 -37 -67 -33 -73 1 -2 -7 -25 -18 -53 -26 -66 -122
-347 -122 -357 0 -4 18 -8 39 -8 l40 0 22 75 23 75 82 0 c85 0 91 -3 99 -50 0
-3 9 -26 19 -52 18 -46 21 -48 57 -48 22 0 39 3 39 8 -1 8 -30 90 -48 135 -7
16 -12 34 -12 41 0 6 -18 59 -39 116 -22 57 -38 107 -35 112 3 4 0 8 -7 8 -7
0 -10 3 -6 6 3 3 0 19 -8 36 -10 25 -19 32 -47 33 -20 2 -40 0 -45 -4z m66
-184 c20 -59 26 -87 18 -88 -63 -5 -102 -1 -102 12 0 17 48 169 52 165 2 -2
16 -42 32 -89z"/>
<path d="M5731 3470 c-5 -3 -8 -114 -7 -247 l0 -243 39 0 38 0 -3 190 c-2 105
-2 190 -1 190 1 0 16 -26 34 -57 18 -32 57 -95 86 -141 29 -45 53 -85 53 -87
0 -2 15 -25 32 -50 29 -41 36 -46 68 -43 l35 3 0 245 0 244 -35 1 -35 0 0
-182 c0 -172 -1 -180 -16 -155 -204 336 -207 339 -247 338 -19 -1 -37 -3 -41
-6z"/>
<path d="M3990 2850 c-5 -3 -9 -115 -9 -248 l0 -243 41 3 42 3 0 108 -1 107
66 1 c36 1 78 0 94 -1 24 -1 27 2 27 29 l0 31 -93 0 -94 0 0 70 c-1 58 2 70
16 71 9 1 53 2 99 2 l82 2 0 35 0 35 -131 0 c-72 0 -134 -2 -139 -5z"/>
<path d="M4428 2852 c-17 -3 -18 -23 -18 -248 l0 -244 39 0 38 0 1 102 c1 55
4 103 6 106 3 2 26 1 51 -2 49 -8 72 -31 81 -82 3 -16 12 -50 20 -76 15 -46
17 -48 54 -48 l38 0 -18 68 c-9 37 -20 79 -24 94 -3 15 -17 38 -30 51 l-24 25
22 10 c29 13 56 69 56 117 0 88 -69 134 -196 132 -43 -1 -87 -3 -96 -5z m169
-71 c48 -20 63 -76 31 -117 -22 -27 -68 -42 -110 -36 l-28 4 0 82 0 82 38 0
c20 -1 51 -7 69 -15z"/>
<path d="M4875 2852 c-3 -3 -5 -115 -5 -249 l0 -243 38 0 38 0 0 247 -1 246
-33 2 c-18 1 -34 -1 -37 -3z"/>
<path d="M5122 2845 c-4 -5 -7 -117 -7 -247 l-1 -238 143 0 143 0 0 29 c0 35
-8 37 -122 36 l-88 -1 0 78 0 78 95 0 95 0 0 35 0 35 -95 0 -96 0 3 67 3 67
95 0 c52 0 98 4 101 9 7 10 -1 57 -10 58 -41 7 -254 2 -259 -6z"/>
<path d="M5552 2851 c-5 -3 -9 -115 -9 -248 l1 -243 32 0 c22 0 33 5 36 18 2
9 3 90 2 180 0 89 2 159 6 155 9 -11 71 -108 104 -163 41 -69 50 -83 61 -96 6
-7 21 -31 35 -53 21 -36 28 -41 62 -41 35 0 38 2 39 28 4 228 2 462 -3 463
-10 2 -33 2 -56 0 -17 -1 -18 -13 -15 -182 l2 -181 -49 83 c-28 45 -50 83 -50
84 0 1 -29 46 -64 100 -57 87 -68 99 -95 100 -17 1 -35 -1 -39 -4z"/>
<path d="M6113 2852 l-23 -3 0 -245 c0 -225 1 -244 18 -245 216 -14 309 19
366 129 28 53 37 172 17 209 -5 11 -8 22 -6 25 11 11 -69 88 -113 109 -38 19
-64 24 -142 24 -52 1 -105 0 -117 -3z m224 -83 c62 -30 88 -86 80 -175 -9
-114 -64 -166 -181 -172 l-71 -4 0 182 c1 137 4 183 14 189 22 14 111 3 158
-20z"/>
<path d="M6705 2844 c-52 -27 -69 -53 -73 -113 -3 -51 -1 -59 26 -86 44 -44
52 -49 109 -70 38 -13 56 -27 66 -47 17 -35 12 -71 -13 -93 -24 -22 -108 -22
-150 0 -37 19 -38 19 -46 -23 -6 -28 -3 -33 22 -43 16 -6 56 -13 90 -16 94 -8
161 33 182 109 12 46 -1 98 -33 128 -12 12 -55 38 -96 58 -64 33 -74 42 -80
71 -5 25 -2 36 14 52 11 10 24 20 29 20 39 6 78 3 101 -8 26 -13 28 -12 38 13
5 15 8 33 5 39 -10 27 -144 34 -191 9z"/>
<path d="M3999 2163 c0 -67 0 -352 1 -400 0 -23 5 -33 15 -33 12 0 15 18 15
100 0 99 0 100 24 100 52 0 126 24 155 50 54 50 60 131 13 181 -41 43 -75 56
-152 58 l-70 2 -1 -58z m149 15 c39 -12 82 -65 82 -101 0 -27 -39 -80 -72 -98
-12 -6 -45 -13 -74 -16 l-53 -5 -3 116 c-3 109 -2 116 17 119 23 4 56 0 103
-15z"/>
<path d="M4832 2208 c-7 -7 -12 -18 -12 -25 0 -7 -4 -21 -9 -31 -5 -9 -20 -51
-34 -92 -14 -41 -44 -126 -66 -188 -23 -63 -41 -122 -41 -133 0 -30 27 -11 34
24 4 18 16 57 28 88 l22 56 85 1 c47 1 91 -2 97 -6 7 -4 19 -27 27 -52 28 -82
49 -130 58 -130 16 0 10 27 -32 137 -22 59 -41 113 -42 118 -2 6 -6 16 -10 23
-5 6 -5 12 -2 12 3 0 -1 12 -9 28 -8 15 -27 62 -42 105 -15 42 -30 77 -33 77
-4 0 -12 -5 -19 -12z m45 -131 c2 -10 10 -31 18 -48 9 -16 13 -29 10 -29 -3 0
1 -13 10 -30 8 -16 15 -31 15 -35 0 -3 -39 -5 -86 -5 -68 0 -84 3 -77 13 6 6
13 26 17 42 4 17 19 64 34 104 l26 75 15 -35 c8 -18 16 -42 18 -52z"/>
<path d="M5489 2213 c-14 -4 -16 -32 -16 -244 1 -208 3 -239 16 -237 12 3 15
23 15 111 l-1 107 54 0 c30 0 63 -5 74 -10 25 -14 49 -72 56 -135 5 -50 17
-75 35 -75 6 0 8 10 4 23 -4 12 -13 55 -21 95 -8 40 -21 80 -30 88 -20 20 -20
21 15 61 17 18 31 40 31 48 1 8 2 25 3 38 4 39 -33 93 -80 116 -40 20 -99 25
-155 14z m141 -38 c73 -38 88 -116 30 -167 -27 -25 -37 -27 -92 -25 l-63 2 -2
90 c-1 50 0 96 2 103 6 17 89 15 125 -3z"/>
<path d="M6734 2208 c-35 -17 -67 -84 -61 -128 6 -50 26 -70 115 -114 86 -43
108 -77 91 -140 -11 -39 -43 -75 -68 -77 -56 -5 -70 -3 -103 15 -47 24 -63 12
-24 -19 21 -17 42 -23 86 -24 68 -1 103 20 130 82 35 77 4 136 -98 188 -96 49
-102 55 -102 99 0 58 39 100 93 100 23 0 54 -6 69 -14 15 -8 29 -12 32 -9 8 9
-14 44 -24 38 -5 -3 -11 -1 -15 5 -8 13 -93 12 -121 -2z"/>
<path d="M6190 2208 c0 -2 -2 -110 -3 -241 -1 -184 1 -237 11 -237 9 0 12 55
12 240 0 153 -4 240 -10 240 -5 0 -10 -1 -10 -2z"/>
</g>
</svg>
